# xmcd CD database file
#
# Track frame offsets:
#	150
#	23560
#	46072
#	87857
#	114625
#	142017
#	167740
#	206980
#	236060
#	261537
#	278617
#
# Disc length: 3998 seconds
#
# Revision: 0
# Processed by: cddbd v1.5PL3 Copyright (c) Steve Scherf et al.
# Submitted via: CDex 1.51
#
DISCID=9c0f9c0b
DTITLE=University of Wisconsin - Eau Claire Jazz Ensemble I - Jazz In Clear Water
DYEAR=1993
DGENRE=Jazz
TTITLE0=Back In Town
TTITLE1=The Quintessence
TTITLE2=Chop Suey
TTITLE3=Consummation
TTITLE4=Cherokee (Indian Love Song)
TTITLE5=Jeeps Blues
TTITLE6=Latin Expresso
TTITLE7=High Altotude
TTITLE8=Zodiac
TTITLE9=Songbird
TTITLE10=The Trolley Song
EXTD=YEAR: 1993
EXTT0=
EXTT1=
EXTT2=
EXTT3=
EXTT4=
EXTT5=
EXTT6=
EXTT7=
EXTT8=
EXTT9=
EXTT10=
PLAYORDER=
